<svg width="458" height="119" viewBox="0 0 458 119" fill="none" xmlns="http://www.w3.org/2000/svg">
<g clip-path="url(#clip0_264_181)">
<path d="M72.3603 54.53C75.1549 54.53 77.4203 52.2646 77.4203 49.47C77.4203 46.6754 75.1549 44.41 72.3603 44.41C69.5657 44.41 67.3003 46.6754 67.3003 49.47C67.3003 52.2646 69.5657 54.53 72.3603 54.53Z" fill="#242E3B"/>
<path d="M84.8902 76.3L84.8802 94.91C84.8802 96.77 82.9502 99 80.9002 99.38C68.3002 101.72 30.5002 104.68 30.5002 104.68C28.7802 104.91 28.7802 107.07 30.5102 107.07H95.3402C98.2902 107.07 100.69 105.27 100.69 103.06V68.21L84.8902 76.3Z" fill="#242E3B"/>
<path d="M30.6802 4.53001C30.6802 4.53001 68.1502 7.62001 80.4802 9.80001C83.0902 10.26 84.8802 11.98 84.8802 13.96V24.6V29.51V54.53L100.69 46.14V36.08V34.6V6.18001C100.69 3.96001 98.3002 2.17001 95.3402 2.17001H30.7302C28.8302 2.39001 28.9302 4.22001 30.6802 4.53001Z" fill="#242E3B"/>
<path d="M26.0402 59.81C26.5402 59.34 25.9402 58.54 25.3502 58.9C15.7702 64.71 -5.7398 79.73 1.4402 87.18C4.3502 90.2 10.9502 90.36 14.5602 90.29C21.9002 90.17 30.5202 88.89 37.6002 86.95C46.9202 84.39 56.1902 81.69 65.2802 78.33C73.9302 75.13 82.3302 71.41 90.6102 67.29C99.2602 62.98 107.82 58 115.65 52.19C115.93 51.99 116.2 51.78 116.47 51.57C119.64 49.16 122.65 46.49 125.32 43.48C127.8 40.68 131.04 37 129.34 32.87C127.96 29.51 122.25 28.61 119.47 28.43C118.03 28.34 116.41 28.3 114.97 28.46C114.72 28.49 114.3 28.57 114.31 28.7C114.32 28.97 114.92 28.95 115.87 29.34C117.55 30.02 119.24 31.27 119.32 33.19C119.38 34.62 118.74 36.11 118.01 37.31C117.22 38.61 116.4 39.54 115.47 40.57C113.7 42.54 111.29 44.63 108.85 46.4C97.9602 54.29 89.0502 58.36 87.9502 58.88C73.7602 65.54 56.3502 71.58 47.7102 73.49C41.5002 74.86 35.1402 75.94 28.7202 75.74C26.1002 75.66 20.8702 74.69 20.2402 71.89C19.0902 66.89 22.9602 62.7 26.0402 59.81Z" fill="#242E3B"/>
<path d="M160.38 21.77V32.05C160.38 38 160.25 41.77 161.3 42.71C162.57 43.85 164.85 43.67 166.3 43.67L168.8 43.62V51.56H162.83C154.82 51.56 150.82 47.67 150.82 39.88V21.77H144.26V13.96H150.82V2.28H160.39V13.97H168.81V21.78H160.38V21.77Z" fill="#242E3B"/>
<path d="M178.26 9.54001C177.15 8.48001 176.6 7.15001 176.6 5.57001C176.6 3.99001 177.15 2.66001 178.26 1.60001C179.37 0.54001 180.76 0.0100098 182.44 0.0100098C184.11 0.0100098 185.51 0.54001 186.61 1.60001C187.72 2.67001 188.27 3.99001 188.27 5.57001C188.27 7.16001 187.71 8.48001 186.61 9.54001C185.5 10.6 184.11 11.14 182.44 11.14C180.76 11.13 179.37 10.6 178.26 9.54001Z" fill="#242E3B"/>
<path d="M187.11 13.96H177.61V51.56H187.11V13.96Z" fill="#242E3B"/>
<path d="M253.56 18.13C256.35 20.92 257.74 24.81 257.74 29.81V51.57H248.37V31.08C248.37 28.18 247.63 25.96 246.16 24.42C244.69 22.88 242.68 22.11 240.14 22.11C237.6 22.11 235.58 22.88 234.08 24.42C232.58 25.96 231.84 28.18 231.84 31.08V51.56H222.47V31.08C222.47 28.18 221.73 25.96 220.26 24.42C218.79 22.88 216.78 22.11 214.23 22.11C211.64 22.11 209.6 22.88 208.11 24.42C206.61 25.96 205.87 28.18 205.87 31.08V51.56H196.5V13.95H205.87V18.97C207.07 17.41 208.63 16.18 210.52 15.29C212.42 14.4 214.5 13.95 216.78 13.95C219.68 13.95 222.27 14.56 224.55 15.79C226.83 17.02 228.59 18.77 229.84 21.04C231.05 18.9 232.8 17.18 235.09 15.88C237.39 14.59 239.88 13.94 242.56 13.94C247.1 13.95 250.77 15.34 253.56 18.13Z" fill="#242E3B"/>
<path d="M300.9 35.52H274.26C274.48 38.15 275.4 40.21 277.02 41.7C278.64 43.19 280.64 43.94 283.01 43.94C286.43 43.94 288.86 42.47 290.31 39.53H300.24C299.19 43.04 297.17 45.92 294.19 48.18C291.21 50.44 287.55 51.57 283.2 51.57C279.69 51.57 276.55 50.79 273.76 49.24C270.98 47.68 268.8 45.48 267.25 42.63C265.69 39.78 264.92 36.49 264.92 32.76C264.92 28.99 265.68 25.68 267.22 22.83C268.75 19.98 270.9 17.79 273.66 16.25C276.42 14.72 279.6 13.95 283.2 13.95C286.66 13.95 289.77 14.7 292.51 16.19C295.25 17.68 297.38 19.8 298.89 22.54C300.4 25.28 301.16 28.43 301.16 31.98C301.16 33.28 301.07 34.47 300.9 35.52ZM291.62 29.34C291.58 26.97 290.72 25.08 289.06 23.65C287.39 22.22 285.35 21.51 282.94 21.51C280.66 21.51 278.74 22.2 277.19 23.58C275.63 24.96 274.68 26.88 274.33 29.34H291.62Z" fill="#242E3B"/>
<path d="M358.91 49.24C356.1 47.68 353.9 45.48 352.3 42.63C350.7 39.78 349.9 36.49 349.9 32.76C349.9 29.03 350.72 25.75 352.37 22.89C354.02 20.04 356.26 17.84 359.11 16.28C361.96 14.73 365.14 13.95 368.65 13.95C372.16 13.95 375.34 14.73 378.19 16.28C381.04 17.84 383.29 20.04 384.93 22.89C386.57 25.74 387.4 29.03 387.4 32.76C387.4 36.49 386.56 39.78 384.87 42.63C383.18 45.48 380.9 47.68 378.03 49.24C375.16 50.8 371.95 51.57 368.39 51.57C364.87 51.57 361.71 50.79 358.91 49.24ZM373.08 42.33C374.55 41.52 375.72 40.3 376.6 38.68C377.48 37.06 377.91 35.08 377.91 32.76C377.91 29.3 377 26.63 375.18 24.77C373.36 22.91 371.13 21.98 368.5 21.98C365.87 21.98 363.66 22.91 361.89 24.77C360.11 26.64 359.23 29.3 359.23 32.76C359.23 36.22 360.1 38.89 361.83 40.75C363.56 42.61 365.74 43.54 368.37 43.54C370.04 43.54 371.61 43.14 373.08 42.33Z" fill="#242E3B"/>
<path d="M400.87 49.24C398.06 47.68 395.86 45.48 394.26 42.63C392.66 39.78 391.86 36.49 391.86 32.76C391.86 29.03 392.68 25.75 394.33 22.89C395.98 20.04 398.22 17.84 401.07 16.28C403.92 14.73 407.1 13.95 410.61 13.95C414.12 13.95 417.3 14.73 420.15 16.28C423 17.84 425.25 20.04 426.89 22.89C428.53 25.74 429.36 29.03 429.36 32.76C429.36 36.49 428.52 39.78 426.83 42.63C425.14 45.48 422.86 47.68 419.99 49.24C417.12 50.8 413.91 51.57 410.35 51.57C406.83 51.57 403.67 50.79 400.87 49.24ZM415.04 42.33C416.51 41.52 417.68 40.3 418.56 38.68C419.44 37.06 419.87 35.08 419.87 32.76C419.87 29.3 418.96 26.63 417.14 24.77C415.32 22.91 413.09 21.98 410.46 21.98C407.83 21.98 405.62 22.91 403.85 24.77C402.07 26.64 401.19 29.3 401.19 32.76C401.19 36.22 402.06 38.89 403.79 40.75C405.52 42.61 407.7 43.54 410.33 43.54C412 43.54 413.57 43.14 415.04 42.33Z" fill="#242E3B"/>
<path d="M450.92 15.08C451.74 14.9 452.58 14.8 453.42 14.74C454.22 14.69 455.02 14.68 455.82 14.69C456.22 14.7 456.62 14.71 457.02 14.72C457.23 14.73 457.82 14.72 457.82 14.72C457.82 14.72 457.82 15.26 457.82 15.4C457.82 15.71 457.82 16.01 457.82 16.32C457.82 17.92 457.82 19.52 457.82 21.11C457.82 21.56 457.82 22 457.82 22.46C457.82 22.46 454.98 22.48 454.71 22.48C453.58 22.48 452.45 22.79 452 22.94C450.5 23.42 449.1 24.38 448.02 25.54C446.6 27.08 446.34 28.93 446.34 30.93C446.34 31.08 446.34 32.68 446.34 32.83V51.56H436.77V13.96H446.34C446.34 13.96 446.34 17.52 446.34 17.59C446.34 17.45 446.63 17.24 446.73 17.15C446.9 16.99 447.08 16.84 447.27 16.7C447.65 16.41 448.07 16.15 448.5 15.93C449.26 15.53 450.08 15.26 450.92 15.08Z" fill="#242E3B"/>
<path d="M308.52 24.08C308.89 23.36 309.33 22.67 309.83 22.02C311.8 19.48 314.57 17.61 317.59 16.51C322.75 14.63 329.17 15.19 332.89 17.49C332.88 13.18 332.9 6.66001 332.89 2.35001H342.46C342.47 2.35001 342.47 2.36001 342.47 2.36001V51.55C342.47 51.56 342.46 51.56 342.46 51.56H333.63C333.62 51.56 332.9 51.55 332.9 51.53C332.9 49.85 332.9 49.77 332.9 48.07C330.06 52.29 319.52 52.77 313.99 48.96C311.72 47.4 309.86 45.25 308.56 42.83C306.73 39.42 306.08 35.44 306.49 31.6C306.76 28.99 307.32 26.39 308.52 24.08ZM332.41 28.04C331.58 26.52 330.45 25.35 329.04 24.54C327.62 23.73 326.1 23.32 324.48 23.32C322.86 23.32 321.36 23.72 319.98 24.51C318.61 25.3 317.49 26.46 316.64 27.98C315.79 29.5 315.36 31.3 315.36 33.38C315.36 35.46 315.79 37.28 316.64 38.84C317.49 40.4 318.62 41.6 320.01 42.43C321.41 43.26 322.89 43.68 324.48 43.68C326.1 43.68 327.62 43.27 329.04 42.46C330.46 41.65 331.58 40.48 332.41 38.96C333.24 37.44 333.66 35.62 333.66 33.49C333.65 31.39 333.24 29.57 332.41 28.04Z" fill="#242E3B"/>
<path d="M146.59 77.49C147.41 75.95 148.45 74.53 149.69 73.31C152.25 70.77 155.64 69.1 159.2 68.52C161.66 68.12 164.21 68.27 166.62 68.93C167.84 69.27 169.02 69.73 170.13 70.33C171.28 70.95 172.21 71.81 173.28 72.53C173.38 70.93 173.38 69.94 173.38 69.05H182.78V106.85H173.38C173.38 105.9 173.35 104.07 173.39 103.12C168.35 108.06 158.29 107.74 152.61 104.19C146.37 100.29 143.76 92.42 144.32 85.33C144.54 82.61 145.3 79.9 146.59 77.49ZM172.05 81.7C171.16 80.08 169.96 78.83 168.45 77.96C166.94 77.09 165.32 76.66 163.58 76.66C161.84 76.66 160.25 77.08 158.78 77.93C157.31 78.77 156.12 80.01 155.21 81.63C154.3 83.25 153.84 85.17 153.84 87.4C153.84 89.63 154.29 91.57 155.21 93.23C156.12 94.9 157.32 96.18 158.81 97.07C160.3 97.96 161.89 98.4 163.58 98.4C165.31 98.4 166.94 97.97 168.45 97.1C169.96 96.23 171.16 94.99 172.05 93.36C172.94 91.74 173.38 89.79 173.38 87.52C173.38 85.26 172.94 83.32 172.05 81.7Z" fill="#10AF13"/>
<path d="M228.05 77.49C228.87 75.95 229.91 74.53 231.15 73.31C233.71 70.77 237.1 69.1 240.66 68.52C243.12 68.12 245.67 68.27 248.08 68.93C249.3 69.27 250.48 69.73 251.59 70.33C252.74 70.95 253.67 71.81 254.74 72.53C254.84 70.93 254.84 69.94 254.84 69.05H264.24V106.85H254.84C254.84 105.9 254.81 104.07 254.85 103.12C249.81 108.06 239.75 107.74 234.07 104.19C227.83 100.29 225.22 92.42 225.78 85.33C225.99 82.61 226.76 79.9 228.05 77.49ZM253.5 81.7C252.61 80.08 251.41 78.83 249.9 77.96C248.39 77.09 246.77 76.66 245.03 76.66C243.29 76.66 241.7 77.08 240.23 77.93C238.76 78.77 237.57 80.01 236.66 81.63C235.75 83.25 235.29 85.17 235.29 87.4C235.29 89.63 235.74 91.57 236.66 93.23C237.57 94.9 238.77 96.18 240.26 97.07C241.75 97.96 243.34 98.4 245.03 98.4C246.76 98.4 248.39 97.97 249.9 97.1C251.41 96.23 252.61 94.99 253.5 93.36C254.39 91.74 254.83 89.79 254.83 87.52C254.84 85.26 254.39 83.32 253.5 81.7Z" fill="#10AF13"/>
<path d="M349.71 90.41H322.41C322.64 93.11 323.58 95.22 325.24 96.75C326.9 98.28 328.95 99.04 331.37 99.04C334.87 99.04 337.37 97.53 338.85 94.52H349.03C347.95 98.12 345.88 101.07 342.83 103.38C339.77 105.7 336.02 106.85 331.57 106.85C327.97 106.85 324.75 106.05 321.9 104.46C319.05 102.87 316.82 100.61 315.23 97.68C313.64 94.76 312.84 91.39 312.84 87.57C312.84 83.71 313.62 80.32 315.2 77.39C316.77 74.47 318.97 72.22 321.8 70.65C324.63 69.08 327.89 68.29 331.57 68.29C335.12 68.29 338.3 69.05 341.11 70.58C343.92 72.11 346.1 74.28 347.65 77.08C349.2 79.89 349.98 83.11 349.98 86.75C349.98 88.12 349.89 89.33 349.71 90.41ZM340.2 84.08C340.16 81.65 339.28 79.71 337.57 78.25C335.86 76.79 333.77 76.06 331.3 76.06C328.96 76.06 327 76.77 325.4 78.18C323.81 79.6 322.83 81.56 322.47 84.08H340.2Z" fill="#10AF13"/>
<path d="M413.48 72.59C416.34 75.45 417.77 79.44 417.77 84.56V106.86H408.16V85.87C408.16 82.9 407.4 80.62 405.9 79.04C404.39 77.46 402.33 76.67 399.73 76.67C397.13 76.67 395.05 77.46 393.52 79.04C391.98 80.62 391.22 82.9 391.22 85.87V106.86H381.62V85.87C381.62 82.9 380.87 80.62 379.36 79.04C377.85 77.46 375.79 76.67 373.18 76.67C370.53 76.67 368.44 77.46 366.9 79.04C365.37 80.62 364.6 82.9 364.6 85.87V106.86H354.99V68.3H364.6V73.45C365.83 71.85 367.42 70.59 369.37 69.68C371.32 68.77 373.45 68.31 375.78 68.31C378.75 68.31 381.41 68.94 383.74 70.2C386.07 71.46 387.88 73.25 389.16 75.59C390.4 73.39 392.19 71.63 394.55 70.31C396.91 68.99 399.46 68.32 402.2 68.32C406.86 68.3 410.62 69.73 413.48 72.59Z" fill="#10AF13"/>
<path d="M220.43 103.53C218.56 104.68 216.66 105.52 214.72 106.05C212.78 106.59 210.69 106.85 208.45 106.85C202.35 106.85 197.59 105.14 194.16 101.72C190.73 98.3 189.01 93.88 189.01 88.46C189.01 82.23 190.84 77.31 194.51 73.7C198.18 70.09 203.04 68.29 209.11 68.29C211.35 68.29 213.33 68.51 215.05 68.95C216.76 69.39 218.47 70.1 220.18 71.05L216.15 78.3C215.07 77.67 214.01 77.22 212.95 76.95C211.89 76.68 210.75 76.55 209.54 76.55C206.53 76.55 204.17 77.53 202.47 79.47C200.76 81.42 199.91 84.17 199.91 87.72C199.91 91.13 200.82 93.79 202.64 95.7C204.46 97.62 206.75 98.57 209.5 98.57C210.32 98.57 211.33 98.4 212.55 98.06C213.76 97.72 214.99 97.17 216.23 96.4L220.43 103.53Z" fill="#10AF13"/>
<path d="M272.64 78.98C273.01 78.26 273.45 77.56 273.96 76.91C275.94 74.35 278.73 72.47 281.77 71.36C286.96 69.47 293.42 70.03 297.17 72.35C297.16 68.01 297.18 61.45 297.17 57.11H306.8C306.81 57.11 306.81 57.12 306.81 57.12L306.8 106.86H297.17C297.17 105.17 297.17 104.84 297.17 103.13C294.31 107.38 283.7 107.86 278.14 104.02C275.86 102.45 273.99 100.28 272.68 97.85C270.83 94.41 270.19 90.41 270.6 86.55C270.86 83.92 271.43 81.3 272.64 78.98ZM296.68 82.97C295.84 81.44 294.71 80.27 293.28 79.45C291.85 78.63 290.33 78.23 288.69 78.23C287.05 78.23 285.55 78.63 284.16 79.42C282.78 80.22 281.66 81.38 280.8 82.91C279.94 84.44 279.51 86.25 279.51 88.35C279.51 90.45 279.94 92.28 280.8 93.85C281.66 95.42 282.79 96.63 284.19 97.47C285.59 98.31 287.09 98.73 288.69 98.73C290.33 98.73 291.85 98.32 293.28 97.51C294.71 96.69 295.84 95.52 296.68 93.99C297.52 92.46 297.94 90.63 297.94 88.49C297.94 86.33 297.52 84.5 296.68 82.97Z" fill="#10AF13"/>
<path d="M422.78 116.64L425.23 108.79C426.7 109.28 427.93 109.53 429.15 109.53C432.58 109.53 435.03 107.08 436.75 102.17L423.27 68.3H432.83L440.67 89.89L448.27 68.3H457.83L445.58 103.39C443.86 108.54 441.66 112.47 438.96 114.68C436.51 116.89 433.32 118.12 429.65 118.12C427.19 117.87 424.99 117.63 422.78 116.64Z" fill="#10AF13"/>
</g>
<defs>
<clipPath id="clip0_264_181">
<rect width="457.82" height="118.12" fill="white"/>
</clipPath>
</defs>
</svg>
